{"scene":0,"scenes":[{"nodes":[0]}],"asset":{"version":"2.0","generator":"https://github.com/mikedh/trimesh"},"accessors":[{"componentType":5125,"type":"SCALAR","bufferView":0,"count":36,"max":[7],"min":[0]},{"componentType":5126,"type":"VEC3","byteOffset":0,"bufferView":1,"count":8,"max":[1.7000000476837158,1.2999999523162842,0.4000000059604645],"min":[-1.7000000476837158,-1.2999999523162842,-0.4000000059604645]},{"componentType":5121,"normalized":true,"type":"VEC4","byteOffset":0,"bufferView":2,"count":8,"max":[70,80,92,255],"min":[70,80,92,255]},{"componentType":5125,"type":"SCALAR","bufferView":3,"count":576,"max":[97],"min":[0]},{"componentType":5126,"type":"VEC3","byteOffset":0,"bufferView":4,"count":98,"max":[1.0,1.2000000476837158,0.5199999809265137],"min":[-1.0,-0.800000011920929,0.4000000059604645]},{"componentType":5121,"normalized":true,"type":"VEC4","byteOffset":0,"bufferView":5,"count":98,"max":[235,238,240,255],"min":[235,238,240,255]},{"componentType":5126,"type":"VEC3","byteOffset":0,"bufferView":6,"count":8,"max":[1.0499999523162842,0.22499999403953552,0.5849999785423279],"min":[-0.3499999940395355,0.17499999701976776,0.5350000262260437]},{"componentType":5121,"normalized":true,"type":"VEC4","byteOffset":0,"bufferView":7,"count":8,"max":[220,45,45,255],"min":[220,45,45,255]}],"meshes":[{"name":"geometry_0","extras":{"shape":"box","extents":[3.4,2.6,0.8]},"primitives":[{"attributes":{"POSITION":1,"COLOR_0":2},"indices":0,"mode":4}]},{"name":"geometry_1","extras":{"shape":"cylinder","height":0.12,"radius":1,"processed":true},"primitives":[{"attributes":{"POSITION":4,"COLOR_0":5},"indices":3,"mode":4}]},{"name":"geometry_2","extras":{"shape":"box","extents":[1.4,0.05,0.05]},"primitives":[{"attributes":{"POSITION":6,"COLOR_0":7},"indices":0,"mode":4}]}],"nodes":[{"name":"world","children":[1,2,3]},{"name":"body","mesh":0},{"name":"dial","mesh":1},{"name":"needle","mesh":2}],"buffers":[{"uri":"data:application/octet-stream;base64,","byteLength":144},{"uri":"data:application/octet-stream;base64,","byteLength":96},{"uri":"data:application/octet-stream;base64,","byteLength":32},{"uri":"data:application/octet-stream;base64,","byteLength":2304},{"uri":"data:application/octet-stream;base64,","byteLength":1176},{"uri":"data:application/octet-stream;base64,","byteLength":392},{"uri":"data:application/octet-stream;base64,","byteLength":96},{"uri":"data:application/octet-stream;base64,","byteLength":32}],"bufferViews":[{"buffer":0,"byteOffset":0,"byteLength":144},{"buffer":1,"byteOffset":0,"byteLength":96},{"buffer":2,"byteOffset":0,"byteLength":32},{"buffer":3,"byteOffset":0,"byteLength":2304},{"buffer":4,"byteOffset":0,"byteLength":1176},{"buffer":5,"byteOffset":0,"byteLength":392},{"buffer":6,"byteOffset":0,"byteLength":96},{"buffer":7,"byteOffset":0,"byteLength":32}]}