{"scene":0,"scenes":[{"nodes":[0]}],"asset":{"version":"2.0","generator":"https://github.com/mikedh/trimesh"},"accessors":[{"componentType":5125,"type":"SCALAR","bufferView":0,"count":36,"max":[7],"min":[0]},{"componentType":5126,"type":"VEC3","byteOffset":0,"bufferView":1,"count":8,"max":[2.299999952316284,-1.3250000476837158,0.3499999940395355],"min":[-2.299999952316284,-1.875,-0.3499999940395355]},{"componentType":5121,"normalized":true,"type":"VEC4","byteOffset":0,"bufferView":2,"count":8,"max":[150,160,170,255],"min":[150,160,170,255]},{"componentType":5126,"type":"VEC3","byteOffset":0,"bufferView":3,"count":8,"max":[-1.725000023841858,1.600000023841858,0.3499999940395355],"min":[-2.2750000953674316,-1.600000023841858,-0.3499999940395355]},{"componentType":5126,"type":"VEC3","byteOffset":0,"bufferView":4,"count":8,"max":[0.05000000074505806,1.625,0.3499999940395355],"min":[-2.25,1.0750000476837158,-0.3499999940395355]},{"componentType":5125,"type":"SCALAR","bufferView":5,"count":384,"max":[65],"min":[0]},{"componentType":5126,"type":"VEC3","byteOffset":0,"bufferView":6,"count":66,"max":[0.20000000298023224,0.800000011920929,0.3499999940395355],"min":[-0.6000000238418579,0.10000000149011612,-0.3499999940395355]},{"componentType":5121,"normalized":true,"type":"VEC4","byteOffset":0,"bufferView":7,"count":66,"max":[190,198,205,255],"min":[190,198,205,255]},{"componentType":5126,"type":"VEC3","byteOffset":0,"bufferView":8,"count":66,"max":[2.5,0.6899999976158142,0.23999999463558197],"min":[0.20000000298023224,0.20999999344348907,-0.23999999463558197]},{"componentType":5121,"normalized":true,"type":"VEC4","byteOffset":0,"bufferView":9,"count":66,"max":[205,210,215,255],"min":[205,210,215,255]},{"componentType":5125,"type":"SCALAR","bufferView":10,"count":576,"max":[97],"min":[0]},{"componentType":5126,"type":"VEC3","byteOffset":0,"bufferView":11,"count":98,"max":[3.049999952316284,1.0299999713897705,0.5799999833106995],"min":[1.850000023841858,-0.12999999523162842,-0.5799999833106995]},{"componentType":5121,"normalized":true,"type":"VEC4","byteOffset":0,"bufferView":12,"count":98,"max":[120,130,140,255],"min":[120,130,140,255]}],"meshes":[{"name":"geometry_0","extras":{"shape":"box","extents":[4.6,0.55,0.7]},"primitives":[{"attributes":{"POSITION":1,"COLOR_0":2},"indices":0,"mode":4}]},{"name":"geometry_1","extras":{"shape":"box","extents":[0.55,3.2,0.7]},"primitives":[{"attributes":{"POSITION":3,"COLOR_0":2},"indices":0,"mode":4}]},{"name":"geometry_2","extras":{"shape":"box","extents":[2.3,0.55,0.7]},"primitives":[{"attributes":{"POSITION":4,"COLOR_0":2},"indices":0,"mode":4}]},{"name":"geometry_3","extras":{"shape":"cylinder","height":0.8,"radius":0.35,"processed":true},"primitives":[{"attributes":{"POSITION":6,"COLOR_0":7},"indices":5,"mode":4}]},{"name":"geometry_4","extras":{"shape":"cylinder","height":2.3,"radius":0.24,"processed":true},"primitives":[{"attributes":{"POSITION":8,"COLOR_0":9},"indices":5,"mode":4}]},{"name":"geometry_5","extras":{"shape":"cylinder","height":1.2,"radius":0.58,"processed":true},"primitives":[{"attributes":{"POSITION":11,"COLOR_0":12},"indices":10,"mode":4}]}],"nodes":[{"name":"world","children":[1,2,3,4,5,6]},{"name":"base","mesh":0},{"name":"left","mesh":1},{"name":"top","mesh":2},{"name":"anvil","mesh":3},{"name":"spindle","mesh":4},{"name":"thimble","mesh":5}],"buffers":[{"uri":"data:application/octet-stream;base64,","byteLength":144},{"uri":"data:application/octet-stream;base64,","byteLength":96},{"uri":"data:application/octet-stream;base64,","byteLength":32},{"uri":"data:application/octet-stream;base64,","byteLength":96},{"uri":"data:application/octet-stream;base64,","byteLength":96},{"uri":"data:application/octet-stream;base64,","byteLength":1536},{"uri":"data:application/octet-stream;base64,","byteLength":792},{"uri":"data:application/octet-stream;base64,","byteLength":264},{"uri":"data:application/octet-stream;base64,","byteLength":792},{"uri":"data:application/octet-stream;base64,","byteLength":264},{"uri":"data:application/octet-stream;base64,","byteLength":2304},{"uri":"data:application/octet-stream;base64,","byteLength":1176},{"uri":"data:application/octet-stream;base64,","byteLength":392}],"bufferViews":[{"buffer":0,"byteOffset":0,"byteLength":144},{"buffer":1,"byteOffset":0,"byteLength":96},{"buffer":2,"byteOffset":0,"byteLength":32},{"buffer":3,"byteOffset":0,"byteLength":96},{"buffer":4,"byteOffset":0,"byteLength":96},{"buffer":5,"byteOffset":0,"byteLength":1536},{"buffer":6,"byteOffset":0,"byteLength":792},{"buffer":7,"byteOffset":0,"byteLength":264},{"buffer":8,"byteOffset":0,"byteLength":792},{"buffer":9,"byteOffset":0,"byteLength":264},{"buffer":10,"byteOffset":0,"byteLength":2304},{"buffer":11,"byteOffset":0,"byteLength":1176},{"buffer":12,"byteOffset":0,"byteLength":392}]}