{"scene":0,"scenes":[{"nodes":[0]}],"asset":{"version":"2.0","generator":"https://github.com/mikedh/trimesh"},"accessors":[{"componentType":5125,"type":"SCALAR","bufferView":0,"count":36,"max":[7],"min":[0]},{"componentType":5126,"type":"VEC3","byteOffset":0,"bufferView":1,"count":8,"max":[3.0,0.17499999701976776,0.22499999403953552],"min":[-3.0,-0.17499999701976776,-0.22499999403953552]},{"componentType":5121,"normalized":true,"type":"VEC4","byteOffset":0,"bufferView":2,"count":8,"max":[180,188,196,255],"min":[180,188,196,255]},{"componentType":5126,"type":"VEC3","byteOffset":0,"bufferView":3,"count":8,"max":[-2.424999952316284,1.75,0.25],"min":[-2.7750000953674316,-0.25,-0.25]},{"componentType":5121,"normalized":true,"type":"VEC4","byteOffset":0,"bufferView":4,"count":8,"max":[145,155,165,255],"min":[145,155,165,255]},{"componentType":5126,"type":"VEC3","byteOffset":0,"bufferView":5,"count":8,"max":[0.574999988079071,1.75,0.25],"min":[0.22499999403953552,-0.25,-0.25]},{"componentType":5126,"type":"VEC3","byteOffset":0,"bufferView":6,"count":8,"max":[1.0499999523162842,0.4000000059604645,0.30000001192092896],"min":[-0.25,-0.4000000059604645,-0.30000001192092896]},{"componentType":5121,"normalized":true,"type":"VEC4","byteOffset":0,"bufferView":7,"count":8,"max":[105,115,125,255],"min":[105,115,125,255]}],"meshes":[{"name":"geometry_0","extras":{"shape":"box","extents":[6.0,0.35,0.45]},"primitives":[{"attributes":{"POSITION":1,"COLOR_0":2},"indices":0,"mode":4}]},{"name":"geometry_1","extras":{"shape":"box","extents":[0.35,2.0,0.5]},"primitives":[{"attributes":{"POSITION":3,"COLOR_0":4},"indices":0,"mode":4}]},{"name":"geometry_2","extras":{"shape":"box","extents":[0.35,2.0,0.5]},"primitives":[{"attributes":{"POSITION":5,"COLOR_0":4},"indices":0,"mode":4}]},{"name":"geometry_3","extras":{"shape":"box","extents":[1.3,0.8,0.6]},"primitives":[{"attributes":{"POSITION":6,"COLOR_0":7},"indices":0,"mode":4}]}],"nodes":[{"name":"world","children":[1,2,3,4]},{"name":"beam","mesh":0},{"name":"fixed","mesh":1},{"name":"slider","mesh":2},{"name":"slider-body","mesh":3}],"buffers":[{"uri":"data:application/octet-stream;base64,","byteLength":144},{"uri":"data:application/octet-stream;base64,","byteLength":96},{"uri":"data:application/octet-stream;base64,","byteLength":32},{"uri":"data:application/octet-stream;base64,","byteLength":96},{"uri":"data:application/octet-stream;base64,","byteLength":32},{"uri":"data:application/octet-stream;base64,","byteLength":96},{"uri":"data:application/octet-stream;base64,","byteLength":96},{"uri":"data:application/octet-stream;base64,","byteLength":32}],"bufferViews":[{"buffer":0,"byteOffset":0,"byteLength":144},{"buffer":1,"byteOffset":0,"byteLength":96},{"buffer":2,"byteOffset":0,"byteLength":32},{"buffer":3,"byteOffset":0,"byteLength":96},{"buffer":4,"byteOffset":0,"byteLength":32},{"buffer":5,"byteOffset":0,"byteLength":96},{"buffer":6,"byteOffset":0,"byteLength":96},{"buffer":7,"byteOffset":0,"byteLength":32}]}